<mxfile host="app.diagrams.net" agent="Mozilla/5.0 (Windows NT 10.0; Win64; x64) AppleWebKit/537.36 (KHTML, like Gecko) Chrome/130.0.0.0 Safari/537.36" version="24.8.6">
  <diagram name="Trang-1" id="yO4YcSKEKS29byCxSBB0">
    <mxGraphModel dx="794" dy="1661" grid="1" gridSize="10" guides="1" tooltips="1" connect="1" arrows="1" fold="1" page="1" pageScale="1" pageWidth="827" pageHeight="1169" math="0" shadow="0">
      <root>
        <mxCell id="0" />
        <mxCell id="1" parent="0" />
        <mxCell id="Gl1smv2doazMei4NzEKJ-1" value="&lt;p style=&quot;box-sizing: border-box; margin: 0pt 0px; padding: 5pt 0pt 13pt; font-family: SFProDisplay; font-size: 16px; text-align: start; background-color: rgb(255, 255, 255); line-height: 1.92;&quot; dir=&quot;ltr&quot;&gt;&lt;font style=&quot;vertical-align: inherit;&quot;&gt;&lt;font style=&quot;vertical-align: inherit;&quot;&gt;Nhập số đầu vào&lt;/font&gt;&lt;/font&gt;&lt;/p&gt;" style="shape=parallelogram;perimeter=parallelogramPerimeter;whiteSpace=wrap;html=1;fixedSize=1;" parent="1" vertex="1">
          <mxGeometry x="305" y="40" width="150" height="60" as="geometry" />
        </mxCell>
        <mxCell id="brKF9Zl0HWFnURP3l6XV-3" style="edgeStyle=orthogonalEdgeStyle;rounded=0;orthogonalLoop=1;jettySize=auto;html=1;entryX=0.538;entryY=0.167;entryDx=0;entryDy=0;entryPerimeter=0;" parent="1" source="Gl1smv2doazMei4NzEKJ-1" edge="1">
          <mxGeometry relative="1" as="geometry">
            <mxPoint x="379.94000000000005" y="170.01999999999998" as="targetPoint" />
          </mxGeometry>
        </mxCell>
        <mxCell id="brKF9Zl0HWFnURP3l6XV-5" style="edgeStyle=orthogonalEdgeStyle;rounded=0;orthogonalLoop=1;jettySize=auto;html=1;" parent="1" source="brKF9Zl0HWFnURP3l6XV-4" edge="1">
          <mxGeometry relative="1" as="geometry">
            <mxPoint x="330" y="370" as="targetPoint" />
          </mxGeometry>
        </mxCell>
        <mxCell id="brKF9Zl0HWFnURP3l6XV-6" style="edgeStyle=orthogonalEdgeStyle;rounded=0;orthogonalLoop=1;jettySize=auto;html=1;" parent="1" source="brKF9Zl0HWFnURP3l6XV-4" edge="1">
          <mxGeometry relative="1" as="geometry">
            <mxPoint x="430" y="370" as="targetPoint" />
          </mxGeometry>
        </mxCell>
        <mxCell id="brKF9Zl0HWFnURP3l6XV-4" value="&lt;font style=&quot;vertical-align: inherit;&quot;&gt;&lt;font style=&quot;vertical-align: inherit;&quot;&gt;Kiểm tra số % &lt;/font&gt;&lt;/font&gt;&lt;span class=&quot;hljs-number&quot;&gt;&lt;font style=&quot;vertical-align: inherit;&quot;&gt;&lt;font style=&quot;vertical-align: inherit;&quot;&gt;2&lt;/font&gt;&lt;/font&gt;&lt;/span&gt;&lt;font style=&quot;vertical-align: inherit;&quot;&gt;&lt;font style=&quot;vertical-align: inherit;&quot;&gt; == &lt;/font&gt;&lt;/font&gt;&lt;span class=&quot;hljs-number&quot;&gt;&lt;font style=&quot;vertical-align: inherit;&quot;&gt;&lt;font style=&quot;vertical-align: inherit;&quot;&gt;0&lt;/font&gt;&lt;/font&gt;&lt;/span&gt;" style="rhombus;whiteSpace=wrap;html=1;" parent="1" vertex="1">
          <mxGeometry x="315" y="170" width="130" height="130" as="geometry" />
        </mxCell>
        <mxCell id="brKF9Zl0HWFnURP3l6XV-10" style="edgeStyle=orthogonalEdgeStyle;rounded=0;orthogonalLoop=1;jettySize=auto;html=1;entryX=0.5;entryY=0;entryDx=0;entryDy=0;" parent="1" source="brKF9Zl0HWFnURP3l6XV-9" target="Gl1smv2doazMei4NzEKJ-1" edge="1">
          <mxGeometry relative="1" as="geometry" />
        </mxCell>
        <mxCell id="brKF9Zl0HWFnURP3l6XV-9" value="&lt;font style=&quot;vertical-align: inherit;&quot;&gt;&lt;font style=&quot;vertical-align: inherit;&quot;&gt;bắt đầu&lt;/font&gt;&lt;/font&gt;" style="ellipse;whiteSpace=wrap;html=1;" parent="1" vertex="1">
          <mxGeometry x="320" y="-100" width="120" height="80" as="geometry" />
        </mxCell>
        <mxCell id="brKF9Zl0HWFnURP3l6XV-11" value="&lt;font style=&quot;vertical-align: inherit;&quot;&gt;&lt;font style=&quot;vertical-align: inherit;&quot;&gt;kết thúc&lt;/font&gt;&lt;/font&gt;" style="ellipse;whiteSpace=wrap;html=1;" parent="1" vertex="1">
          <mxGeometry x="320" y="520" width="120" height="80" as="geometry" />
        </mxCell>
        <mxCell id="qUgndIUDG6zQzB-DwXRT-7" value="" style="edgeStyle=orthogonalEdgeStyle;rounded=0;orthogonalLoop=1;jettySize=auto;html=1;" edge="1" parent="1" source="qUgndIUDG6zQzB-DwXRT-3" target="brKF9Zl0HWFnURP3l6XV-11">
          <mxGeometry relative="1" as="geometry" />
        </mxCell>
        <mxCell id="qUgndIUDG6zQzB-DwXRT-3" value="&lt;span class=&quot;hljs-keyword&quot;&gt;In&lt;/span&gt;&amp;nbsp;&quot;Số chẵn&quot;" style="shape=parallelogram;perimeter=parallelogramPerimeter;whiteSpace=wrap;html=1;fixedSize=1;" vertex="1" parent="1">
          <mxGeometry x="260" y="370" width="120" height="60" as="geometry" />
        </mxCell>
        <mxCell id="qUgndIUDG6zQzB-DwXRT-4" value="&lt;span class=&quot;hljs-keyword&quot;&gt;In&lt;/span&gt;&amp;nbsp;&quot;Số lẻ&quot;" style="shape=parallelogram;perimeter=parallelogramPerimeter;whiteSpace=wrap;html=1;fixedSize=1;" vertex="1" parent="1">
          <mxGeometry x="380" y="370" width="120" height="60" as="geometry" />
        </mxCell>
        <mxCell id="qUgndIUDG6zQzB-DwXRT-6" style="edgeStyle=orthogonalEdgeStyle;rounded=0;orthogonalLoop=1;jettySize=auto;html=1;entryX=0.917;entryY=0.179;entryDx=0;entryDy=0;entryPerimeter=0;" edge="1" parent="1" source="qUgndIUDG6zQzB-DwXRT-4" target="brKF9Zl0HWFnURP3l6XV-11">
          <mxGeometry relative="1" as="geometry" />
        </mxCell>
      </root>
    </mxGraphModel>
  </diagram>
</mxfile>
